HIERARCHY
ROOT SpineBase
{
  OFFSET 0.000000 0.000000 0.000000
  CHANNELS 6 Xposition Yposition Zposition Zrotation Xrotation Yrotation
  JOINT SpineMid
  {
    OFFSET 0.000000 30.398305 0.000000
    CHANNELS 3 Zrotation Xrotation Yrotation
    JOINT SpineShoulder
    {
      OFFSET -0.072102 22.587829 -0.821546
      CHANNELS 3 Zrotation Xrotation Yrotation
      JOINT Neck
      {
        OFFSET -0.074174 7.481770 -0.618349
        CHANNELS 3 Zrotation Xrotation Yrotation
        JOINT Head
        {
          OFFSET 1.423052 13.546982 -2.263071
          CHANNELS 3 Zrotation Xrotation Yrotation
          End Site
          {
            OFFSET 0 0 0
          }
        }
      }
      JOINT ShoulderLeft
      {
        OFFSET -17.377758 -0.942405 -0.354339
        CHANNELS 3 Zrotation Xrotation Yrotation
        JOINT ElbowLeft
        {
          OFFSET -6.216416 -25.725343 1.457831
          CHANNELS 3 Zrotation Xrotation Yrotation
          JOINT WristLeft
          {
            OFFSET 0.104891 -23.391663 -5.536933
            CHANNELS 3 Zrotation Xrotation Yrotation
            JOINT HandLeft
            {
              OFFSET 0.453026 -6.952290 -1.894256
              CHANNELS 3 Zrotation Xrotation Yrotation
              JOINT HandTipLeft
              {
                OFFSET -0.766946 -6.906667 -2.563631
                CHANNELS 3 Zrotation Xrotation Yrotation
                End Site
                {
                  OFFSET 0 0 0
                }
              }
              JOINT ThumbLeft
              {
                OFFSET -4.013638 1.297604 -1.460837
                CHANNELS 3 Zrotation Xrotation Yrotation
                End Site
                {
                  OFFSET 0 0 0
                }
              }
            }
          }
        }
      }
      JOINT ShoulderRight
      {
        OFFSET 17.243446 -3.837597 -0.594193
        CHANNELS 3 Zrotation Xrotation Yrotation
        JOINT ElbowRight
        {
          OFFSET 1.682609 -29.947810 1.188296
          CHANNELS 3 Zrotation Xrotation Yrotation
          JOINT WristRight
          {
            OFFSET -1.265159 -23.516142 -3.908076
            CHANNELS 3 Zrotation Xrotation Yrotation
            JOINT HandRight
            {
              OFFSET -1.143964 -0.203791 -1.407522
              CHANNELS 3 Zrotation Xrotation Yrotation
              JOINT HandTipRight
              {
                OFFSET 0.724902 -6.503972 -1.857566
                CHANNELS 3 Zrotation Xrotation Yrotation
                End Site
                {
                  OFFSET 0 0 0
                }
              }
              JOINT ThumbRight
              {
                OFFSET 2.727726 -4.072179 -2.815296
                CHANNELS 3 Zrotation Xrotation Yrotation
                End Site
                {
                  OFFSET 0 0 0
                }
              }
            }
          }
        }
      }
    }
  }
  JOINT HipLeft
  {
    OFFSET -8.060954 0.838447 -3.285533
    CHANNELS 3 Zrotation Xrotation Yrotation
    JOINT KneeLeft
    {
      OFFSET -1.578580 -30.813724 3.115940
      CHANNELS 3 Zrotation Xrotation Yrotation
      JOINT AnkleLeft
      {
        OFFSET -0.283710 -31.037767 12.155950
        CHANNELS 3 Zrotation Xrotation Yrotation
        JOINT FootLeft
        {
          OFFSET 5.050614 -7.998464 0.010239
          CHANNELS 3 Zrotation Xrotation Yrotation
          End Site
          {
            OFFSET 0 0 0
          }
        }
      }
    }
  }
  JOINT HipRight
  {
    OFFSET 7.201636 0.827667 -3.867050
    CHANNELS 3 Zrotation Xrotation Yrotation
    JOINT KneeRight
    {
      OFFSET 0.838214 -26.574415 -3.649404
      CHANNELS 3 Zrotation Xrotation Yrotation
      JOINT AnkleRight
      {
        OFFSET 2.291917 -24.422386 -6.424570
        CHANNELS 3 Zrotation Xrotation Yrotation
        JOINT FootRight
        {
          OFFSET 0.445539 -3.973466 -15.176516
          CHANNELS 3 Zrotation Xrotation Yrotation
          End Site
          {
            OFFSET 0 0 0
          }
        }
      }
    }
  }
}
MOTION
Frames: 8
Frame Time: 0.033333
45.380619 70.211191 376.855898 -0.000000 0.000000 2.181963 -0.000000 0.000000 -2.181963 -0.000000 0.000000 0.000000 -0.000000 0.000000 0.000000 0.000000 0.000000 0.000000 -0.000000 0.000000 0.000000 -0.000000 0.000000 0.000000 -0.000000 0.000000 0.000000 -0.000000 0.000000 0.000000 0.000000 0.000000 0.000000 0.000000 0.000000 0.000000 -0.000000 0.000000 0.000000 -0.000000 0.000000 0.000000 -0.000000 0.000000 0.000000 -0.000000 0.000000 0.000000 0.000000 0.000000 0.000000 0.000000 0.000000 0.000000 -0.000000 0.000000 -2.181963 -0.000000 0.000000 0.000000 -0.000000 0.000000 0.000000 0.000000 0.000000 0.000000 -0.000000 0.000000 -2.181963 -0.000000 0.000000 0.000000 -0.000000 0.000000 0.000000 0.000000 0.000000 0.000000
45.375929 70.189093 376.680954 0.112021 -0.047692 2.299379 -0.110017 0.052147 -2.299282 -0.000000 0.000000 0.000000 -0.248987 0.767975 -0.120707 0.000000 0.000000 0.000000 -0.000000 0.000000 0.000000 -0.000000 0.000000 0.000000 -0.000000 0.000000 0.000000 -0.603974 -1.648983 0.400521 0.000000 0.000000 0.000000 0.000000 0.000000 0.000000 -0.000000 0.000000 0.000000 -0.000000 0.000000 0.000000 15.889434 -18.068680 6.383804 -17.360007 21.145273 0.528191 0.000000 0.000000 0.000000 0.000000 0.000000 0.000000 -0.110017 0.052147 -2.299282 1.102581 0.092030 0.430284 -5.709172 15.255323 10.145589 0.000000 0.000000 0.000000 -0.110017 0.052147 -2.299282 -0.000000 0.000000 0.000000 -1.078829 -3.312157 4.182638 0.000000 0.000000 0.000000
45.380810 70.168530 376.524047 0.206644 -0.090014 2.375177 -0.202737 0.098500 -2.374841 -0.000000 0.000000 0.000000 -0.447490 1.399369 -0.216648 0.000000 0.000000 0.000000 -0.000000 0.000000 0.000000 -0.000000 0.000000 0.000000 0.897035 -0.558688 -0.276674 -1.757791 -2.767596 0.968783 0.000000 0.000000 0.000000 0.000000 0.000000 0.000000 -0.000000 0.000000 0.000000 -0.000000 0.000000 0.000000 27.480308 -27.873176 12.859646 -30.232456 34.006562 5.660249 0.000000 0.000000 0.000000 0.000000 0.000000 0.000000 -0.202737 0.098500 -2.374841 2.123087 0.194612 0.826893 -13.929356 28.321359 21.634166 0.000000 0.000000 0.000000 1.339673 -0.287742 -2.596285 -2.021312 1.206998 0.438736 -1.455004 -7.852190 7.975334 0.000000 0.000000 0.000000
45.395263 70.149503 376.385177 0.283867 -0.126967 2.409145 -0.278280 0.138786 -2.408493 -0.000000 0.000000 0.000000 -0.596029 1.893303 -0.289262 0.000000 0.000000 0.000000 -0.000000 0.000000 0.000000 -0.000000 0.000000 0.000000 1.760055 -0.924503 -0.526260 -2.524997 -4.079904 1.398653 0.000000 0.000000 0.000000 0.000000 0.000000 0.000000 0.851790 -0.154333 0.026262 -0.304479 0.776770 -0.152710 35.036105 -33.469154 18.110149 -40.171932 41.166710 11.805088 0.000000 0.000000 0.000000 0.000000 0.000000 0.000000 -0.278280 0.138786 -2.408493 3.060853 0.305971 1.189589 -23.030228 37.118742 32.727307 0.000000 0.000000 0.000000 2.015128 -0.445059 -2.735788 -2.683936 1.823554 0.570530 -2.057304 -12.144680 11.561874 0.000000 0.000000 0.000000
45.419289 70.132010 376.264344 0.343688 -0.158550 2.401138 -0.336746 0.172807 -2.400154 -0.000000 0.000000 0.000000 -0.695026 2.249256 -0.339665 0.000000 0.000000 0.000000 -0.000000 0.000000 0.000000 -0.000000 0.000000 0.000000 2.933840 -1.352333 -0.854342 -3.242963 -5.312131 1.813299 0.000000 0.000000 0.000000 0.000000 0.000000 0.000000 1.005218 -0.272510 0.026951 -0.317752 1.041806 -0.185478 40.214699 -36.494484 21.310794 -47.852786 45.132274 17.543221 0.000000 0.000000 0.000000 0.000000 0.000000 0.000000 -0.336746 0.172807 -2.400154 3.915524 0.424480 1.518312 -31.223869 42.270601 41.960875 0.000000 0.000000 0.000000 2.693822 -0.609038 -2.829639 -3.109904 2.449530 0.636906 -2.540418 -16.439605 14.560462 0.000000 0.000000 0.000000
45.452886 70.116052 376.161547 0.386106 -0.184762 2.351078 -0.378203 0.200442 -2.349794 -0.000000 0.000000 0.000000 -0.744800 2.466962 -0.368643 0.000000 0.000000 0.000000 -0.000000 0.000000 0.000000 -0.000000 0.000000 0.000000 4.427204 -1.842574 -1.257999 -3.925114 -6.445234 2.225546 0.000000 0.000000 0.000000 0.000000 0.000000 0.000000 1.089098 -0.423939 0.023410 -0.282791 1.309835 -0.208951 43.623103 -38.442551 23.137037 -53.606850 47.273697 22.371499 0.000000 0.000000 0.000000 0.000000 0.000000 0.000000 -0.593793 -0.594119 -2.327916 4.871447 1.346701 1.723710 -37.647369 45.134472 48.808347 0.000000 0.000000 0.000000 3.375472 -0.777928 -2.877571 -3.296694 3.084376 0.632673 -2.942860 -20.544703 16.730677 0.000000 0.000000 0.000000
45.495690 70.096718 376.073324 0.401993 -0.185327 2.231599 -0.394474 0.200835 -2.230258 -0.000000 0.000000 0.000000 -0.729819 2.531916 -0.372928 0.000000 0.000000 0.000000 -0.000000 0.000000 0.000000 -0.000000 0.000000 0.000000 6.578177 -1.920421 -1.810408 -4.407864 -7.475605 2.466588 0.000000 0.000000 0.000000 0.000000 0.000000 0.000000 1.161340 -0.565686 0.020017 -0.308747 1.357310 -0.206921 45.970740 -40.355925 22.750162 -58.617141 48.272945 27.678295 0.000000 0.000000 0.000000 0.000000 0.000000 0.000000 -0.627667 -0.773302 -2.200848 5.411622 1.719798 1.886947 -42.921253 46.763142 54.310735 0.000000 0.000000 0.000000 4.363416 -0.868028 -2.889205 -3.895243 3.372864 0.678289 -3.085540 -23.456163 17.727030 0.000000 0.000000 0.000000
45.535664 70.090854 375.999829 0.391767 -0.166789 2.114970 -0.385347 0.181129 -2.113791 -0.000000 0.000000 0.000000 -0.582800 2.445052 -0.342841 0.000000 0.000000 0.000000 1.236251 -0.431790 0.179488 -1.234928 0.435560 -0.170136 8.840608 -3.010962 -2.381701 -4.820898 -7.461549 2.777797 0.000000 0.000000 0.000000 0.000000 0.000000 0.000000 1.063816 -0.731869 0.007880 -0.213016 1.419416 -0.188513 46.480922 -41.120043 21.837046 -61.528615 49.580968 31.058419 0.000000 0.000000 0.000000 0.000000 0.000000 0.000000 -0.569642 -0.942244 -2.071632 5.852627 1.978362 2.036025 -46.820662 47.230430 57.597514 0.000000 0.000000 0.000000 5.267851 -1.057961 -2.885444 -4.482517 3.747821 0.740310 -2.724297 -28.338669 17.024975 0.000000 0.000000 0.000000
